<svg width="18" height="17" viewBox="0 0 18 17" fill="none" xmlns="http://www.w3.org/2000/svg">
<g filter="url(#filter0_d_19_263)">
<path d="M8.52447 0.463526C8.67415 0.0028708 9.32585 0.00286996 9.47553 0.463525L10.9084 4.87336C10.9753 5.07937 11.1673 5.21885 11.3839 5.21885H16.0207C16.505 5.21885 16.7064 5.83865 16.3146 6.12336L12.5633 8.84878C12.3881 8.9761 12.3148 9.20179 12.3817 9.4078L13.8145 13.8176C13.9642 14.2783 13.437 14.6613 13.0451 14.3766L9.29389 11.6512C9.11865 11.5239 8.88135 11.5239 8.70611 11.6512L4.95488 14.3766C4.56303 14.6613 4.03578 14.2783 4.18546 13.8176L5.6183 9.4078C5.68524 9.20179 5.61191 8.9761 5.43667 8.84878L1.68544 6.12336C1.29358 5.83866 1.49497 5.21885 1.97933 5.21885H6.6161C6.83272 5.21885 7.02469 5.07937 7.09163 4.87336L8.52447 0.463526Z" fill="#EF3A01"/>
</g>
<defs>
<filter id="filter0_d_19_263" x="0.478271" y="0.118042" width="17.0435" height="16.3563" filterUnits="userSpaceOnUse" color-interpolation-filters="sRGB">
<feFlood flood-opacity="0" result="BackgroundImageFix"/>
<feColorMatrix in="SourceAlpha" type="matrix" values="0 0 0 0 0 0 0 0 0 0 0 0 0 0 0 0 0 0 127 0" result="hardAlpha"/>
<feOffset dy="1"/>
<feGaussianBlur stdDeviation="0.5"/>
<feColorMatrix type="matrix" values="0 0 0 0 0 0 0 0 0 0 0 0 0 0 0 0 0 0 0.1 0"/>
<feBlend mode="normal" in2="BackgroundImageFix" result="effect1_dropShadow_19_263"/>
<feBlend mode="normal" in="SourceGraphic" in2="effect1_dropShadow_19_263" result="shape"/>
</filter>
</defs>
</svg>
