<svg width="20" height="18" viewBox="0 0 20 18" fill="none" xmlns="http://www.w3.org/2000/svg">
<g filter="url(#filter0_d_12_81)">
<path d="M9.52447 1.46353C9.67415 1.00287 10.3259 1.00287 10.4755 1.46353L11.9084 5.87336C11.9753 6.07937 12.1673 6.21885 12.3839 6.21885H17.0207C17.505 6.21885 17.7064 6.83866 17.3146 7.12336L13.5633 9.84878C13.3881 9.9761 13.3148 10.2018 13.3817 10.4078L14.8145 14.8176C14.9642 15.2783 14.437 15.6613 14.0451 15.3766L10.2939 12.6512C10.1186 12.5239 9.88135 12.5239 9.70611 12.6512L5.95488 15.3766C5.56303 15.6613 5.03578 15.2783 5.18546 14.8176L6.6183 10.4078C6.68524 10.2018 6.61191 9.9761 6.43667 9.84878L2.68544 7.12336C2.29358 6.83866 2.49497 6.21885 2.97933 6.21885H7.6161C7.83272 6.21885 8.02469 6.07937 8.09163 5.87336L9.52447 1.46353Z" stroke="#D1D1D1" stroke-linecap="round" stroke-linejoin="round"/>
</g>
<defs>
<filter id="filter0_d_12_81" x="0.977295" y="0.618042" width="18.0454" height="17.3586" filterUnits="userSpaceOnUse" color-interpolation-filters="sRGB">
<feFlood flood-opacity="0" result="BackgroundImageFix"/>
<feColorMatrix in="SourceAlpha" type="matrix" values="0 0 0 0 0 0 0 0 0 0 0 0 0 0 0 0 0 0 127 0" result="hardAlpha"/>
<feOffset dy="1"/>
<feGaussianBlur stdDeviation="0.5"/>
<feColorMatrix type="matrix" values="0 0 0 0 0 0 0 0 0 0 0 0 0 0 0 0 0 0 0.1 0"/>
<feBlend mode="normal" in2="BackgroundImageFix" result="effect1_dropShadow_12_81"/>
<feBlend mode="normal" in="SourceGraphic" in2="effect1_dropShadow_12_81" result="shape"/>
</filter>
</defs>
</svg>
