<svg width="250" height="170" viewBox="0 0 250 170" fill="none" xmlns="http://www.w3.org/2000/svg">
<path d="M20.8005 142.895H20.6809L18.6487 146.96L13.2294 156.802L7.92968 146.999L5.81775 142.616H5.69821V161.145H0V133.332H6.41547L13.2294 146.362H13.3091L20.0434 133.332H26.4987V161.145H20.8005V142.895Z" fill="#EF3A01"/>
<path d="M40.8174 161.623C39.2766 161.623 37.8952 161.371 36.6732 160.866C35.4778 160.362 34.455 159.631 33.6049 158.675C32.7814 157.718 32.1439 156.563 31.6923 155.208C31.2406 153.853 31.0148 152.339 31.0148 150.665C31.0148 148.992 31.2406 147.478 31.6923 146.123C32.1439 144.768 32.7814 143.626 33.6049 142.696C34.455 141.74 35.4778 141.009 36.6732 140.504C37.8952 140 39.2766 139.747 40.8174 139.747C42.3581 139.747 43.7262 140 44.9217 140.504C46.1437 141.009 47.1664 141.74 47.9899 142.696C48.84 143.626 49.4909 144.768 49.9425 146.123C50.3941 147.478 50.6199 148.992 50.6199 150.665C50.6199 152.339 50.3941 153.853 49.9425 155.208C49.4909 156.563 48.84 157.718 47.9899 158.675C47.1664 159.631 46.1437 160.362 44.9217 160.866C43.7262 161.371 42.3581 161.623 40.8174 161.623ZM40.8174 156.961C41.9862 156.961 42.8894 156.603 43.527 155.885C44.1646 155.168 44.4833 154.145 44.4833 152.817V148.553C44.4833 147.225 44.1646 146.202 43.527 145.485C42.8894 144.768 41.9862 144.409 40.8174 144.409C39.6485 144.409 38.7453 144.768 38.1077 145.485C37.4702 146.202 37.1514 147.225 37.1514 148.553V152.817C37.1514 154.145 37.4702 155.168 38.1077 155.885C38.7453 156.603 39.6485 156.961 40.8174 156.961Z" fill="#EF3A01"/>
<path d="M58.9736 161.145L52.1198 140.225H57.9375L60.5276 148.673L62.4802 156.244H62.7989L64.7515 148.673L67.2619 140.225H72.8405L65.9867 161.145H58.9736Z" fill="#EF3A01"/>
<path d="M78.9008 137.994C77.7054 137.994 76.8287 137.728 76.2709 137.197C75.7396 136.639 75.4739 135.935 75.4739 135.085V134.208C75.4739 133.358 75.7396 132.668 76.2709 132.136C76.8287 131.578 77.7054 131.299 78.9008 131.299C80.0962 131.299 80.9596 131.578 81.4909 132.136C82.0488 132.668 82.3277 133.358 82.3277 134.208V135.085C82.3277 135.935 82.0488 136.639 81.4909 137.197C80.9596 137.728 80.0962 137.994 78.9008 137.994ZM75.9521 140.225H81.8495V161.145H75.9521V140.225Z" fill="#EF3A01"/>
<path d="M96.0804 161.623C94.4865 161.623 93.0653 161.371 91.8167 160.866C90.5682 160.335 89.5056 159.605 88.6289 158.675C87.7788 157.718 87.128 156.563 86.6764 155.208C86.2513 153.853 86.0388 152.339 86.0388 150.665C86.0388 149.018 86.2513 147.531 86.6764 146.202C87.1014 144.848 87.7257 143.692 88.5492 142.736C89.3993 141.779 90.4353 141.049 91.6573 140.544C92.8793 140.013 94.274 139.747 95.8413 139.747C97.5681 139.747 99.0424 140.039 100.264 140.624C101.513 141.208 102.522 141.992 103.293 142.975C104.09 143.958 104.661 145.1 105.006 146.402C105.378 147.677 105.564 149.018 105.564 150.426V152.18H92.1355V152.498C92.1355 153.88 92.5074 154.982 93.2512 155.806C93.9951 156.603 95.1639 157.001 96.7578 157.001C97.9798 157.001 98.976 156.762 99.7464 156.284C100.517 155.779 101.234 155.181 101.898 154.491L104.847 158.157C103.917 159.246 102.695 160.096 101.181 160.707C99.6933 161.318 97.9931 161.623 96.0804 161.623ZM95.9609 144.091C94.7654 144.091 93.8224 144.489 93.1317 145.286C92.4676 146.056 92.1355 147.092 92.1355 148.394V148.713H99.4675V148.354C99.4675 147.079 99.1753 146.056 98.5908 145.286C98.033 144.489 97.1563 144.091 95.9609 144.091Z" fill="#EF3A01"/>
<path d="M121.285 161.623C119.399 161.623 117.699 161.331 116.184 160.747C114.67 160.136 113.382 159.246 112.319 158.077C111.257 156.882 110.433 155.407 109.849 153.654C109.264 151.874 108.972 149.802 108.972 147.438C108.972 145.1 109.264 143.028 109.849 141.221C110.433 139.389 111.257 137.861 112.319 136.639C113.382 135.39 114.67 134.447 116.184 133.81C117.699 133.172 119.399 132.853 121.285 132.853C123.862 132.853 125.987 133.385 127.661 134.447C129.334 135.483 130.676 137.13 131.685 139.389L126.465 142.098C126.093 140.929 125.509 140 124.712 139.309C123.941 138.592 122.799 138.233 121.285 138.233C119.505 138.233 118.071 138.817 116.981 139.986C115.919 141.129 115.388 142.802 115.388 145.007V149.47C115.388 151.675 115.919 153.362 116.981 154.531C118.071 155.673 119.505 156.244 121.285 156.244C122.773 156.244 123.955 155.846 124.831 155.049C125.735 154.225 126.399 153.242 126.824 152.1L131.765 154.969C130.729 157.094 129.361 158.741 127.661 159.91C125.987 161.052 123.862 161.623 121.285 161.623Z" fill="#EF3A01"/>
<path d="M151.145 161.145C150.083 161.145 149.193 160.813 148.476 160.149C147.785 159.485 147.347 158.595 147.161 157.479H146.922C146.603 158.834 145.899 159.87 144.81 160.587C143.721 161.278 142.379 161.623 140.785 161.623C138.686 161.623 137.079 161.066 135.964 159.95C134.848 158.834 134.29 157.36 134.29 155.527C134.29 153.322 135.087 151.688 136.681 150.626C138.301 149.536 140.493 148.992 143.256 148.992H146.563V147.677C146.563 146.667 146.297 145.87 145.766 145.286C145.235 144.675 144.345 144.369 143.096 144.369C141.927 144.369 140.998 144.622 140.307 145.127C139.616 145.631 139.045 146.202 138.593 146.84L135.087 143.732C135.937 142.483 137 141.514 138.275 140.823C139.576 140.106 141.33 139.747 143.535 139.747C146.51 139.747 148.741 140.398 150.229 141.7C151.717 143.001 152.46 144.901 152.46 147.398V156.563H154.413V161.145H151.145ZM142.977 157.519C143.96 157.519 144.796 157.307 145.487 156.882C146.204 156.457 146.563 155.766 146.563 154.81V152.339H143.694C141.383 152.339 140.227 153.123 140.227 154.69V155.288C140.227 156.058 140.466 156.629 140.945 157.001C141.423 157.347 142.1 157.519 142.977 157.519Z" fill="#EF3A01"/>
<path d="M165.47 161.145C163.424 161.145 161.87 160.627 160.808 159.591C159.772 158.555 159.254 157.041 159.254 155.049V144.808H156.305V140.225H157.779C158.576 140.225 159.121 140.039 159.413 139.667C159.705 139.269 159.851 138.711 159.851 137.994V134.567H165.151V140.225H169.295V144.808H165.151V156.563H168.976V161.145H165.47Z" fill="#EF3A01"/>
<path d="M188.853 161.145C187.79 161.145 186.9 160.813 186.183 160.149C185.492 159.485 185.054 158.595 184.868 157.479H184.629C184.31 158.834 183.606 159.87 182.517 160.587C181.428 161.278 180.086 161.623 178.492 161.623C176.394 161.623 174.787 161.066 173.671 159.95C172.555 158.834 171.997 157.36 171.997 155.527C171.997 153.322 172.794 151.688 174.388 150.626C176.009 149.536 178.2 148.992 180.963 148.992H184.27V147.677C184.27 146.667 184.005 145.87 183.473 145.286C182.942 144.675 182.052 144.369 180.804 144.369C179.635 144.369 178.705 144.622 178.014 145.127C177.324 145.631 176.752 146.202 176.301 146.84L172.794 143.732C173.644 142.483 174.707 141.514 175.982 140.823C177.284 140.106 179.037 139.747 181.242 139.747C184.217 139.747 186.449 140.398 187.936 141.7C189.424 143.001 190.168 144.901 190.168 147.398V156.563H192.12V161.145H188.853ZM180.684 157.519C181.667 157.519 182.504 157.307 183.195 156.882C183.912 156.457 184.27 155.766 184.27 154.81V152.339H181.401C179.09 152.339 177.935 153.123 177.935 154.69V155.288C177.935 156.058 178.174 156.629 178.652 157.001C179.13 157.347 179.807 157.519 180.684 157.519Z" fill="#EF3A01"/>
<path d="M201.936 161.145C199.917 161.145 198.43 160.654 197.473 159.671C196.544 158.688 196.079 157.267 196.079 155.407V131.658H201.976V156.563H204.606V161.145H201.936Z" fill="#EF3A01"/>
<path d="M216.629 161.623C215.089 161.623 213.707 161.371 212.485 160.866C211.29 160.362 210.267 159.631 209.417 158.675C208.594 157.718 207.956 156.563 207.504 155.208C207.053 153.853 206.827 152.339 206.827 150.665C206.827 148.992 207.053 147.478 207.504 146.123C207.956 144.768 208.594 143.626 209.417 142.696C210.267 141.74 211.29 141.009 212.485 140.504C213.707 140 215.089 139.747 216.629 139.747C218.17 139.747 219.538 140 220.734 140.504C221.956 141.009 222.979 141.74 223.802 142.696C224.652 143.626 225.303 144.768 225.755 146.123C226.206 147.478 226.432 148.992 226.432 150.665C226.432 152.339 226.206 153.853 225.755 155.208C225.303 156.563 224.652 157.718 223.802 158.675C222.979 159.631 221.956 160.362 220.734 160.866C219.538 161.371 218.17 161.623 216.629 161.623ZM216.629 156.961C217.798 156.961 218.702 156.603 219.339 155.885C219.977 155.168 220.295 154.145 220.295 152.817V148.553C220.295 147.225 219.977 146.202 219.339 145.485C218.702 144.768 217.798 144.409 216.629 144.409C215.461 144.409 214.557 144.768 213.92 145.485C213.282 146.202 212.964 147.225 212.964 148.553V152.817C212.964 154.145 213.282 155.168 213.92 155.885C214.557 156.603 215.461 156.961 216.629 156.961Z" fill="#EF3A01"/>
<path d="M250 162.66C250 163.775 249.801 164.758 249.402 165.608C249.03 166.458 248.406 167.176 247.529 167.76C246.653 168.371 245.484 168.823 244.023 169.115C242.588 169.434 240.808 169.593 238.683 169.593C236.877 169.593 235.336 169.473 234.061 169.234C232.812 169.022 231.79 168.703 230.993 168.278C230.222 167.88 229.651 167.375 229.279 166.764C228.934 166.179 228.761 165.502 228.761 164.732C228.761 163.563 229.107 162.646 229.797 161.982C230.488 161.318 231.444 160.906 232.666 160.747V160.309C231.657 160.123 230.9 159.698 230.395 159.033C229.89 158.343 229.638 157.546 229.638 156.643C229.638 156.085 229.744 155.606 229.957 155.208C230.196 154.783 230.488 154.424 230.833 154.132C231.205 153.813 231.63 153.561 232.108 153.375C232.587 153.189 233.065 153.043 233.543 152.937V152.777C232.268 152.193 231.325 151.396 230.714 150.386C230.103 149.35 229.797 148.155 229.797 146.8C229.797 144.675 230.528 142.975 231.989 141.7C233.477 140.398 235.735 139.747 238.763 139.747C240.144 139.747 241.326 139.88 242.309 140.146V139.349C242.309 138.233 242.575 137.436 243.106 136.958C243.664 136.453 244.448 136.201 245.457 136.201H248.765V140.584H244.142V140.823C245.364 141.407 246.268 142.218 246.852 143.254C247.436 144.263 247.729 145.445 247.729 146.8C247.729 148.899 246.985 150.586 245.497 151.861C244.036 153.109 241.791 153.734 238.763 153.734C237.408 153.734 236.173 153.588 235.057 153.295C234.446 153.694 234.141 154.252 234.141 154.969C234.141 155.474 234.327 155.872 234.699 156.164C235.097 156.43 235.748 156.563 236.651 156.563H242.708C245.258 156.563 247.104 157.094 248.247 158.157C249.416 159.219 250 160.72 250 162.66ZM244.461 163.456C244.461 162.845 244.222 162.381 243.744 162.062C243.266 161.743 242.429 161.584 241.234 161.584H234.061C233.795 161.849 233.596 162.142 233.463 162.46C233.357 162.806 233.304 163.138 233.304 163.456C233.304 164.227 233.636 164.785 234.3 165.13C234.964 165.502 236.093 165.688 237.687 165.688H240.078C241.672 165.688 242.801 165.502 243.465 165.13C244.129 164.785 244.461 164.227 244.461 163.456ZM238.763 149.868C239.932 149.868 240.795 149.629 241.353 149.151C241.938 148.646 242.23 147.929 242.23 146.999V146.521C242.23 145.591 241.938 144.887 241.353 144.409C240.795 143.905 239.932 143.652 238.763 143.652C237.594 143.652 236.717 143.905 236.133 144.409C235.575 144.887 235.296 145.591 235.296 146.521V146.999C235.296 147.929 235.575 148.646 236.133 149.151C236.717 149.629 237.594 149.868 238.763 149.868Z" fill="#EF3A01"/>
<g clip-path="url(#clip0_9_205)">
<path d="M52.1055 109.676H20.0465L53.7928 6.10352e-05H85.8518L52.1055 109.676Z" fill="url(#paint0_linear_9_205)"/>
<path d="M153.344 6.10352e-05L119.598 109.676L103.569 57.3688L121.285 6.10352e-05H153.344Z" fill="url(#paint1_linear_9_205)"/>
<path d="M85.8518 6.10352e-05L69.8223 52.3068L87.5391 109.676H119.598L85.8518 6.10352e-05Z" fill="url(#paint2_linear_9_205)"/>
<path d="M153.344 6.10352e-05L137.315 52.3068L155.032 109.676H187.091L153.344 6.10352e-05Z" fill="url(#paint3_linear_9_205)"/>
<path d="M225.055 34.59L208.182 53.1505L166.843 32.0591L156.719 9.15527e-05L225.055 34.59Z" fill="url(#paint4_linear_9_205)"/>
<path d="M227.586 62.4307L187.091 109.676L179.221 84.0429L225.055 34.59L227.586 62.4307Z" fill="url(#paint5_linear_9_205)"/>
</g>
<defs>
<linearGradient id="paint0_linear_9_205" x1="37.7633" y1="109.676" x2="70.666" y2="5.99139e-05" gradientUnits="userSpaceOnUse">
<stop stop-color="#FF5823"/>
<stop offset="1" stop-color="#EF3A01"/>
</linearGradient>
<linearGradient id="paint1_linear_9_205" x1="111.162" y1="81.8348" x2="136.471" y2="6.01857e-05" gradientUnits="userSpaceOnUse">
<stop stop-color="#DF2800"/>
<stop offset="1" stop-color="#FD5019"/>
</linearGradient>
<linearGradient id="paint2_linear_9_205" x1="102.725" y1="109.676" x2="76.5716" y2="27.8408" gradientUnits="userSpaceOnUse">
<stop stop-color="#FF5D2B"/>
<stop offset="1" stop-color="#DF2800"/>
</linearGradient>
<linearGradient id="paint3_linear_9_205" x1="171.061" y1="109.676" x2="144.908" y2="26.9971" gradientUnits="userSpaceOnUse">
<stop stop-color="#FF5925"/>
<stop offset="1" stop-color="#DF2800"/>
</linearGradient>
<linearGradient id="paint4_linear_9_205" x1="214.931" y1="44.7139" x2="160.937" y2="16.0296" gradientUnits="userSpaceOnUse">
<stop stop-color="#DF2800"/>
<stop offset="1" stop-color="#FF5520"/>
</linearGradient>
<linearGradient id="paint5_linear_9_205" x1="176.967" y1="106.301" x2="226.743" y2="47.2449" gradientUnits="userSpaceOnUse">
<stop stop-color="#DF2800"/>
<stop offset="1" stop-color="#FF5D29"/>
</linearGradient>
<clipPath id="clip0_9_205">
<rect width="207.54" height="109.675" fill="white" transform="matrix(1 0 0 -1 20.0465 109.676)"/>
</clipPath>
</defs>
</svg>
