<svg width="22" height="24" viewBox="0 0 22 24" fill="none" xmlns="http://www.w3.org/2000/svg">
<path d="M18 5.00005H13.8117L16.495 2.32839C16.6038 2.21961 16.6901 2.09047 16.7489 1.94834C16.8078 1.80622 16.8381 1.65389 16.8381 1.50005C16.8381 1.34622 16.8078 1.19389 16.7489 1.05176C16.6901 0.909637 16.6038 0.780498 16.495 0.67172C16.3862 0.562942 16.2571 0.476654 16.115 0.417784C15.9728 0.358913 15.8205 0.328613 15.6667 0.328613C15.356 0.328613 15.058 0.452032 14.8383 0.67172L11 4.46339L9.635 2.13005C9.5584 1.99676 9.45629 1.87986 9.33451 1.78603C9.21272 1.6922 9.07365 1.62328 8.92523 1.58319C8.77681 1.54311 8.62195 1.53265 8.46949 1.55242C8.31703 1.57218 8.16996 1.62178 8.03667 1.69839C7.90337 1.77499 7.78648 1.8771 7.69265 1.99888C7.59882 2.12066 7.52989 2.25973 7.48981 2.40815C7.44972 2.55657 7.43927 2.71143 7.45903 2.86389C7.47879 3.01635 7.5284 3.16343 7.605 3.29672L8.66667 5.00005H4C3.07174 5.00005 2.1815 5.3688 1.52513 6.02518C0.868749 6.68156 0.5 7.5718 0.5 8.50005V17.8334C0.5 18.7616 0.868749 19.6519 1.52513 20.3083C2.1815 20.9646 3.07174 21.3334 4 21.3334V22.5001C4 22.8095 4.12292 23.1062 4.34171 23.325C4.5605 23.5438 4.85725 23.6667 5.16667 23.6667C5.47609 23.6667 5.77283 23.5438 5.99162 23.325C6.21042 23.1062 6.33333 22.8095 6.33333 22.5001V21.3334H15.6667V22.5001C15.6667 22.8095 15.7896 23.1062 16.0084 23.325C16.2272 23.5438 16.5239 23.6667 16.8333 23.6667C17.1428 23.6667 17.4395 23.5438 17.6583 23.325C17.8771 23.1062 18 22.8095 18 22.5001V21.3334C18.9283 21.3334 19.8185 20.9646 20.4749 20.3083C21.1313 19.6519 21.5 18.7616 21.5 17.8334V8.50005C21.5 7.5718 21.1313 6.68156 20.4749 6.02518C19.8185 5.3688 18.9283 5.00005 18 5.00005ZM19.1667 17.8334C19.1667 18.1428 19.0438 18.4396 18.825 18.6583C18.6062 18.8771 18.3094 19.0001 18 19.0001H4C3.69058 19.0001 3.39383 18.8771 3.17504 18.6583C2.95625 18.4396 2.83333 18.1428 2.83333 17.8334V8.50005C2.83333 8.19063 2.95625 7.89389 3.17504 7.6751C3.39383 7.4563 3.69058 7.33339 4 7.33339H18C18.3094 7.33339 18.6062 7.4563 18.825 7.6751C19.0438 7.89389 19.1667 8.19063 19.1667 8.50005V17.8334Z" fill="#B7B7B7"/>
</svg>
